<?xml version="1.0" standalone="no"?>
<!DOCTYPE svg PUBLIC "-//W3C//DTD SVG 20010904//EN"
 "http://www.w3.org/TR/2001/REC-SVG-20010904/DTD/svg10.dtd">
<svg version="1.0" xmlns="http://www.w3.org/2000/svg"
 width="4000.000000pt" height="3097.000000pt" viewBox="0 0 4000.000000 3097.000000"
 preserveAspectRatio="xMidYMid meet">

<g transform="translate(0.000000,3097.000000) scale(0.100000,-0.100000)"
fill=[class.my-svg-element] stroke="none">
<path d="M21970 30921 c-25 -20 -418 -350 -875 -731 -1204 -1007 -4216 -3533
-7800 -6541 l-3130 -2627 -2290 -3968 c-4495 -7792 -7006 -12148 -7615 -13210
l-248 -431 67 -7 c88 -8 8017 -8 8627 1 l479 6 2164 4641 c7768 16658 10573
22671 10594 22713 22 43 80 193 74 193 -1 -1 -22 -18 -47 -39z"/>
<path d="M23315 28633 c-380 -1027 -4354 -11967 -4881 -13437 -57 -159 -100
-294 -97 -300 33 -52 2874 -3454 4157 -4976 517 -614 5500 -6542 5524 -6572
12 -15 9 -18 -25 -27 -21 -6 -2164 -386 -4763 -845 -2599 -460 -6807 -1203
-9352 -1653 l-4628 -818 7685 -3 c4227 -1 11143 -1 15370 0 l7684 3 -4090
7090 c-8545 14812 -12475 21605 -12528 21658 -5 5 -30 -49 -56 -120z"/>
</g>
</svg>
