<?xml version="1.0" standalone="no"?>
<!DOCTYPE svg PUBLIC "-//W3C//DTD SVG 20010904//EN"
 "http://www.w3.org/TR/2001/REC-SVG-20010904/DTD/svg10.dtd">
<svg version="1.0" xmlns="http://www.w3.org/2000/svg"
 width="50.000000pt" height="50.000000pt" viewBox="0 0 50.000000 50.000000"
 preserveAspectRatio="xMidYMid meet">
<metadata>
Created by potrace 1.16, written by Peter Selinger 2001-2019
</metadata>
<g transform="translate(0.000000,50.000000) scale(0.100000,-0.100000)"
fill="#000000" stroke="none">
<path d="M92 444 c-52 -31 -72 -68 -72 -132 0 -35 7 -59 24 -85 l24 -35 -24
-23 c-13 -12 -24 -26 -24 -31 0 -13 83 -8 110 7 14 8 47 14 73 15 60 0 122 31
147 73 26 43 26 121 0 164 -44 73 -174 97 -258 47z"/>
<path d="M377 273 c-2 -10 -8 -26 -12 -35 -5 -13 -2 -18 9 -18 9 0 16 -4 16
-10 0 -5 -12 -10 -27 -10 -16 0 -37 -7 -47 -15 -18 -14 -16 -15 27 -15 26 0
47 -4 47 -10 0 -6 -45 -10 -115 -10 -63 0 -115 -3 -115 -8 0 -38 76 -82 142
-82 23 0 52 -7 62 -15 27 -21 116 -20 116 0 0 8 -3 15 -7 15 -5 0 -14 4 -22 9
-12 7 -10 14 8 36 14 19 21 42 21 72 0 38 -5 50 -34 79 -38 38 -61 43 -69 17z"/>
</g>
</svg>
