<?xml version="1.0" standalone="no"?>
<!DOCTYPE svg PUBLIC "-//W3C//DTD SVG 20010904//EN"
 "http://www.w3.org/TR/2001/REC-SVG-20010904/DTD/svg10.dtd">
<svg version="1.0" xmlns="http://www.w3.org/2000/svg"
 width="280.000000pt" height="280.000000pt" viewBox="0 0 280.000000 280.000000"
 preserveAspectRatio="xMidYMid meet">
<metadata>
Created by potrace 1.16, written by Peter Selinger 2001-2019
</metadata>
<g transform="translate(0.000000,280.000000) scale(0.100000,-0.100000)"
fill=[class.my-svg-element] stroke="none">
<path d="M1598 2528 c-81 -101 -118 -198 -118 -313 0 -145 56 -270 175 -391
126 -128 258 -184 436 -184 141 0 240 36 333 121 55 50 134 164 122 177 -4 3
-27 -16 -53 -42 -25 -27 -71 -60 -102 -75 -52 -24 -66 -26 -191 -26 -125 1
-140 3 -205 29 -100 40 -161 80 -231 151 -70 70 -126 161 -151 243 -25 84 -23
211 6 285 13 32 21 60 18 63 -2 2 -20 -15 -39 -38z"/>
<path d="M1092 2413 c-18 -27 -53 -77 -78 -113 -93 -133 -124 -235 -124 -416
0 -87 5 -142 19 -197 76 -295 310 -545 616 -659 164 -61 434 -61 615 -2 137
45 245 119 343 233 65 76 139 212 124 227 -3 4 -32 -22 -63 -56 -91 -97 -188
-156 -335 -201 -104 -32 -288 -33 -409 -2 -290 75 -523 257 -652 509 -73 143
-92 217 -92 364 -1 109 3 136 26 210 15 47 34 94 42 105 17 22 21 45 8 45 -4
0 -22 -21 -40 -47z"/>
<path d="M428 2137 c-185 -228 -238 -367 -238 -629 0 -211 26 -325 120 -523
64 -136 153 -256 279 -378 223 -214 479 -340 746 -368 128 -13 328 -8 430 11
248 46 479 184 644 387 77 95 163 253 137 253 -3 0 -31 -28 -63 -61 -74 -78
-145 -131 -236 -175 -40 -20 -80 -40 -89 -44 -9 -5 -63 -22 -120 -37 -95 -25
-118 -27 -293 -28 -166 0 -203 3 -290 24 -444 106 -821 436 -971 851 -30 85
-50 174 -63 287 -16 136 11 308 72 461 14 34 22 62 18 62 -4 0 -41 -42 -83
-93z"/>
</g>
</svg>
