<?xml version="1.0" standalone="no"?>
<!DOCTYPE svg PUBLIC "-//W3C//DTD SVG 20010904//EN"
 "http://www.w3.org/TR/2001/REC-SVG-20010904/DTD/svg10.dtd">
<svg version="1.0" xmlns="http://www.w3.org/2000/svg"
 width="50.000000pt" height="50.000000pt" viewBox="0 0 50.000000 50.000000"
 preserveAspectRatio="xMidYMid meet">
<metadata>
Created by potrace 1.16, written by Peter Selinger 2001-2019
</metadata>
<g transform="translate(0.000000,50.000000) scale(0.100000,-0.100000)"
fill="#000000" stroke="none">
<path d="M330 415 l0 -65 -113 0 c-75 0 -117 -4 -125 -12 -7 -7 -12 -44 -12
-95 0 -76 2 -83 20 -83 16 0 20 8 23 58 2 31 4 0 5 -70 l2 -128 25 0 c23 0 24
3 28 78 l3 77 2 -77 c2 -76 3 -78 27 -78 l25 0 0 133 c0 90 4 137 12 145 7 7
36 12 65 12 46 0 53 3 53 20 0 11 -4 20 -10 20 -5 0 -10 11 -10 25 0 22 4 25
39 25 38 0 38 0 38 40 l0 40 -48 0 -49 0 0 -65z"/>
</g>
</svg>
