<?xml version="1.0" standalone="no"?>
<!DOCTYPE svg PUBLIC "-//W3C//DTD SVG 20010904//EN"
 "http://www.w3.org/TR/2001/REC-SVG-20010904/DTD/svg10.dtd">
<svg version="1.0" xmlns="http://www.w3.org/2000/svg"
 width="200.000000pt" height="200.000000pt" viewBox="0 0 200.000000 200.000000"
 preserveAspectRatio="xMidYMid meet">
<metadata>
Created by potrace 1.16, written by Peter Selinger 2001-2019
</metadata>
<g transform="translate(0.000000,200.000000) scale(0.100000,-0.100000)"
fill="#000000" stroke="#0000">
<path d="M892 1920 c-84 -22 -219 -83 -289 -131 -64 -44 -165 -141 -219 -211
-277 -358 -250 -887 60 -1216 127 -134 257 -215 433 -269 81 -25 101 -27 263
-27 162 0 182 2 264 28 182 55 397 195 404 261 2 17 -4 39 -12 50 -13 18 -27
20 -158 21 -124 1 -155 5 -233 28 -280 84 -486 292 -567 572 -32 112 -32 305
0 417 38 132 101 242 199 349 56 61 64 88 37 126 -19 28 -79 29 -182 2z m-118
-259 c-69 -138 -96 -257 -97 -421 0 -106 4 -154 21 -223 69 -280 247 -505 499
-631 78 -39 228 -86 274 -86 50 0 40 -17 -24 -43 -131 -52 -254 -70 -388 -56
-329 34 -608 271 -701 596 -32 112 -32 305 0 417 62 216 207 398 407 508 28
15 51 28 52 28 1 0 -19 -40 -43 -89z"/>
</g>
</svg>
