<?xml version="1.0" standalone="no"?>
<!DOCTYPE svg PUBLIC "-//W3C//DTD SVG 20010904//EN"
 "http://www.w3.org/TR/2001/REC-SVG-20010904/DTD/svg10.dtd">
<svg version="1.0" xmlns="http://www.w3.org/2000/svg"
 width="920.000000pt" height="920.000000pt" viewBox="0 0 920.000000 920.000000"
 preserveAspectRatio="xMidYMid meet">

<g transform="translate(0.000000,920.000000) scale(0.100000,-0.100000)"
fill=[class.my-svg-element] stroke="none">
<path d="M4233 9053 c15 -2 39 -2 55 0 15 2 2 4 -28 4 -30 0 -43 -2 -27 -4z"/>
<path d="M4328 9053 c7 -3 16 -2 19 1 4 3 -2 6 -13 5 -11 0 -14 -3 -6 -6z"/>
<path d="M4613 9053 c9 -2 23 -2 30 0 6 3 -1 5 -18 5 -16 0 -22 -2 -12 -5z"/>
<path d="M4748 9053 c18 -2 45 -2 60 0 15 2 0 4 -33 4 -33 0 -45 -2 -27 -4z"/>
<path d="M4003 9043 c9 -2 23 -2 30 0 6 3 -1 5 -18 5 -16 0 -22 -2 -12 -5z"/>
<path d="M4058 9043 c7 -3 16 -2 19 1 4 3 -2 6 -13 5 -11 0 -14 -3 -6 -6z"/>
<path d="M4973 9043 c15 -2 37 -2 50 0 12 2 0 4 -28 4 -27 0 -38 -2 -22 -4z"/>
<path d="M3848 9033 c6 -2 18 -2 25 0 6 3 1 5 -13 5 -14 0 -19 -2 -12 -5z"/>
<path d="M5158 9033 c6 -2 18 -2 25 0 6 3 1 5 -13 5 -14 0 -19 -2 -12 -5z"/>
<path d="M3728 9023 c7 -3 16 -2 19 1 4 3 -2 6 -13 5 -11 0 -14 -3 -6 -6z"/>
<path d="M5278 9023 c6 -2 18 -2 25 0 6 3 1 5 -13 5 -14 0 -19 -2 -12 -5z"/>
<path d="M3618 9013 c7 -3 16 -2 19 1 4 3 -2 6 -13 5 -11 0 -14 -3 -6 -6z"/>
<path d="M3518 9003 c6 -2 18 -2 25 0 6 3 1 5 -13 5 -14 0 -19 -2 -12 -5z"/>
<path d="M5488 9003 c7 -3 16 -2 19 1 4 3 -2 6 -13 5 -11 0 -14 -3 -6 -6z"/>
<path d="M2115 8700 c-3 -6 1 -7 9 -4 18 7 21 14 7 14 -6 0 -13 -4 -16 -10z"/>
<path d="M6950 8680 c8 -5 20 -10 25 -10 6 0 3 5 -5 10 -8 5 -19 10 -25 10 -5
0 -3 -5 5 -10z"/>
<path d="M6990 8666 c0 -2 7 -7 16 -10 8 -3 12 -2 9 4 -6 10 -25 14 -25 6z"/>
<path d="M7040 8646 c0 -2 7 -7 16 -10 8 -3 12 -2 9 4 -6 10 -25 14 -25 6z"/>
<path d="M1730 8530 c-9 -6 -10 -10 -3 -10 6 0 15 5 18 10 8 12 4 12 -15 0z"/>
<path d="M1350 8265 c-13 -14 -22 -27 -19 -29 2 -2 14 10 27 25 29 36 24 38
-8 4z"/>
<path d="M1201 8063 c-10 -26 -10 -27 4 -9 8 11 15 23 15 28 0 15 -7 8 -19
-19z"/>
<path d="M7861 7934 c0 -11 3 -14 6 -6 3 7 2 16 -1 19 -3 4 -6 -2 -5 -13z"/>
<path d="M1151 7904 c0 -11 3 -14 6 -6 3 7 2 16 -1 19 -3 4 -6 -2 -5 -13z"/>
<path d="M7872 7865 c0 -16 2 -22 5 -12 2 9 2 23 0 30 -3 6 -5 -1 -5 -18z"/>
<path d="M7868 7772 c-17 -170 -165 -359 -407 -520 -602 -401 -1858 -655
-3101 -628 -168 4 -323 9 -345 11 -22 2 -87 6 -145 10 -405 24 -926 106 -1307
205 -804 208 -1309 528 -1399 885 -10 40 -12 -573 -13 -3197 -1 -3145 0 -3248
18 -3306 10 -33 35 -90 55 -125 38 -68 179 -227 201 -227 7 0 15 -7 19 -15 3
-8 12 -15 21 -15 8 0 15 -4 15 -9 0 -16 166 -120 295 -186 66 -34 181 -85 255
-114 74 -29 155 -61 180 -71 68 -27 400 -121 410 -115 5 3 12 0 15 -6 4 -5 13
-8 21 -5 7 3 16 0 20 -5 3 -6 15 -9 25 -6 10 3 22 1 25 -5 3 -5 12 -7 20 -4 7
3 16 1 19 -4 3 -5 12 -7 20 -4 8 3 20 2 27 -2 6 -4 21 -8 32 -10 12 -1 115
-18 230 -38 400 -70 738 -103 1169 -115 583 -15 1135 18 1625 100 100 16 187
27 192 24 6 -3 10 -1 10 6 0 7 10 9 25 7 14 -3 25 -2 25 2 0 6 126 34 160 35
8 1 21 4 28 8 6 5 16 6 21 2 5 -3 13 0 16 6 4 5 13 8 21 5 7 -3 16 -1 20 5 3
6 12 8 20 5 7 -3 16 -1 19 4 3 5 12 7 19 4 8 -3 17 0 21 5 3 6 11 9 16 6 5 -4
15 -3 21 1 7 5 19 9 28 9 54 6 382 114 500 166 436 193 683 377 791 590 64
127 59 -132 57 3441 -2 1789 -6 3225 -10 3190z m-4740 -2888 c52 -9 124 -25
160 -37 l67 -22 0 -217 c0 -120 -1 -218 -3 -218 -1 0 -49 22 -105 49 -141 68
-214 85 -367 86 -119 0 -128 -1 -185 -30 -80 -40 -117 -89 -123 -159 -12 -144
50 -207 348 -356 190 -94 290 -162 377 -253 109 -115 147 -217 147 -387 -1
-111 -15 -182 -55 -265 -51 -109 -139 -196 -259 -259 -254 -134 -721 -141
-996 -16 l-64 29 0 235 c0 130 2 236 5 236 2 0 28 -18 57 -41 67 -51 214 -123
298 -145 45 -13 104 -18 195 -18 125 -1 132 0 190 29 84 43 118 89 123 168 7
125 -61 193 -340 337 -200 103 -276 152 -351 227 -110 109 -159 207 -177 349
-18 143 15 289 91 404 110 164 305 263 579 294 65 8 295 -4 388 -20z m1722 16
c159 -20 330 -82 447 -161 70 -47 178 -154 229 -225 65 -90 138 -254 169 -374
33 -128 44 -354 26 -495 -49 -377 -239 -664 -537 -812 l-96 -47 54 -51 c191
-179 405 -378 496 -460 28 -26 52 -50 52 -54 0 -3 -138 -6 -307 -6 l-307 0
-220 245 c-188 209 -224 245 -250 248 -381 34 -681 230 -836 547 -84 170 -120
332 -120 530 0 258 71 503 200 696 203 302 600 468 1000 419z m1710 -895 l0
-865 392 -2 393 -3 0 -195 0 -195 -632 -3 -633 -2 0 1065 0 1065 240 0 240 0
0 -865z"/>
<path d="M4563 4475 c-90 -25 -146 -57 -214 -124 -133 -133 -190 -294 -191
-536 -1 -94 5 -165 16 -215 64 -298 252 -470 513 -470 98 0 165 16 245 57 200
104 299 335 285 667 -9 227 -68 388 -181 502 -68 68 -117 97 -203 119 -71 19
-201 18 -270 0z"/>
</g>
</svg>
